<svg xmlns="http://www.w3.org/2000/svg" viewBox="0 0 100 100" width="100" height="100"><circle cx="50" cy="50" r="50" fill="#e6162d"/><path fill="#fff" d="M66.146 21.646c-1.192.02-2.385.155-3.558.405a2.68 2.68 0 0 0-2.057 3.18 2.67 2.67 0 0 0 3.18 2.056c4.453-.946 9.27.437 12.537 4.06A13.163 13.163 0 0 1 79 44.228a2.682 2.682 0 0 0 5.1 1.65v-.008a18.485 18.485 0 0 0-3.874-18.11c-3.736-4.144-8.912-6.202-14.08-6.114zm-21.724 8.002c-4.936-.09-12.377 3.823-18.99 10.436C18.835 46.68 15 53.684 15 59.738c0 11.57 14.844 18.612 29.36 18.612 19.04 0 31.703-11.06 31.703-19.838.01-5.312-4.463-8.327-8.48-9.573-.986-.3-1.663-.493-1.15-1.787 1.12-2.81 1.235-5.236.018-6.974-2.27-3.246-8.487-3.07-15.615-.087 0 0-2.242.974-1.662-.793 1.09-3.524.928-6.47-.772-8.18-.964-.967-2.332-1.44-3.977-1.472zm22.467 1.52a9.014 9.014 0 0 0-2.313.193c-1.246.263-2.038 1.5-1.777 2.746a2.303 2.303 0 0 0 2.735 1.768 4.416 4.416 0 0 1 4.2 1.352 4.41 4.41 0 0 1 .917 4.318 2.315 2.315 0 0 0 1.49 2.906 2.312 2.312 0 0 0 2.907-1.487 9.02 9.02 0 0 0-1.887-8.828 8.98 8.98 0 0 0-6.275-2.967zm-23.04 14.71c13.086 0 23.702 6.607 23.702 14.76 0 8.15-10.616 14.757-23.703 14.757-13.09 0-23.703-6.607-23.703-14.758 0-8.152 10.614-14.758 23.702-14.758zm-1.44 6.245c-4.57.048-9.045 2.606-10.99 6.553-2.445 4.954-.078 10.46 5.485 12.256 5.776 1.864 12.575-.995 14.942-6.336 2.337-5.235-.58-10.614-6.287-12.092a11.968 11.968 0 0 0-3.148-.38zm1.54 6.47c.184-.005.366.025.537.093.696.25.947 1.033.56 1.738-.405.695-1.304 1.024-2 .734-.695-.28-.907-1.062-.51-1.738a1.72 1.72 0 0 1 1.413-.828zm-5.314 1.63c.487.006.97.1 1.418.29 1.816.78 2.396 2.837 1.295 4.643-1.12 1.787-3.527 2.57-5.333 1.748-1.778-.81-2.308-2.886-1.188-4.634.832-1.304 2.344-2.066 3.806-2.047z"/></svg>