<svg xmlns="http://www.w3.org/2000/svg" width="100" height="100" viewBox="0 0 100 100"><circle cx="50" cy="50" r="50" fill="#3cb034"/><path d="M35.27 21.42C14.61 25.123 7.722 48.56 24.156 59.29c.9.58.9.517-.452 4.567l-1.16 3.468 4.163-2.24 4.163-2.24 2.21.538c2.316.58 5.277.99 7.25.99h1.182l-.408-1.572c-3.238-11.978 7.96-23.846 22.53-23.846h1.972l-.408-1.422C62 26.31 48.506 19.052 35.268 21.42zm-1.803 10.49c2.187 1.486 2.317 4.696.214 6.074-3.41 2.24-7.4-1.7-5.104-5.06 1.008-1.51 3.432-2.005 4.89-1.015zm17.593 0c3.605 2.434.9 8.056-3.133 6.506-2.916-1.12-3.26-5.148-.535-6.592 1.072-.58 2.745-.538 3.67.086zm7.96 8.875c-10.234 1.873-17.334 9.672-16.927 18.633.536 12 14.546 20.27 27.997 16.566l1.587-.43 3.346 1.808c1.847 1.013 3.39 1.746 3.433 1.66.044-.108-.32-1.4-.793-2.888-1.072-3.317-1.093-3.08.344-4.113C94.183 60.367 79.98 36.97 59.02 40.785zm-.407 9.672c.9.603 1.373 2.11.986 3.21-.817 2.35-4.315 2.52-5.258.26-1.073-2.608 1.888-5.02 4.27-3.47zm14.33.258c1.416 1.356 1.182 3.663-.472 4.524-2.53 1.29-5.19-1.294-3.88-3.77.856-1.595 3.066-1.983 4.354-.755zM53.792 73.988" fill="#fff"/></svg>